<?xml version="1.0" encoding="UTF-8"?>
<!DOCTYPE svg PUBLIC "-//W3C//DTD SVG 1.1//EN" "http://www.w3.org/Graphics/SVG/1.1/DTD/svg11.dtd">
<!-- Creator: CorelDRAW -->
<svg xmlns="http://www.w3.org/2000/svg" xml:space="preserve" width="210mm" height="297mm" version="1.1" style="shape-rendering:geometricPrecision; text-rendering:geometricPrecision; image-rendering:optimizeQuality; fill-rule:evenodd; clip-rule:evenodd"
viewBox="0 0 21000 29700"
 xmlns:xlink="http://www.w3.org/1999/xlink"
 xmlns:xodm="http://www.corel.com/coreldraw/odm/2003">
 <defs>
  <style type="text/css">
   <![CDATA[
    .fil0 {fill:#F4FBF2}
   ]]>
  </style>
 </defs>
 <g id="Слой_x0020_1">
  <metadata id="CorelCorpID_0Corel-Layer"/>
  <path class="fil0" d="M7483.65 17363.4c0,-577 -19.27,-1033.97 497.5,-1492.11 1025.12,-908.82 3069.75,-113.65 3591.45,408.73 367.62,368.09 676.48,656.67 884.75,1183 313.36,791.83 201.15,1839.35 -65.06,2622.26l-1164.05 2425.17c-35.93,80.63 -42.4,104.58 -76.71,196.33l-230.03 550.25c-160.36,401.43 -282.32,667.1 -549.53,1010.98 -268.58,345.62 -827.28,779.78 -1288.23,779.78 -555.61,0 -866.92,19.1 -1279,-398.95 -489.69,-496.7 -499.11,-1443.75 -253.26,-1912.72l668.18 -970.42c315.87,-428.73 518.89,-859.72 656.31,-1372.39 235.6,-879 -325.55,-1408.54 -750.28,-1916.31l-106.92 -127.17c-218.13,-242.26 -535.12,-628.01 -535.12,-986.43zm5580.74 -117.02c-495.8,0 -461.64,-975.17 0,-975.17 615.17,0 359.96,747.69 286.2,832.14 -59.05,67.61 -182.48,143.03 -286.2,143.03zm-6357.38 -386.26c5,-119.15 102.86,-580.1 392.66,-535.54l-55.68 570.53c-176.01,-42.72 -185.25,-115.87 -336.98,-34.99zm5459.79 -1804.39c77.61,-30.1 215.64,-50.35 347.63,-31.15 170.86,24.86 159.82,79.23 282.1,154.43 30.68,-119 -29.74,-29.52 56.79,-100.59 58.55,137.46 115.01,202.16 133.75,376.51 81.96,763.48 -553.38,906.66 -848.97,760.71l-218.7 -283.21c-136.27,-216.11 -28.74,-793.52 247.4,-876.7zm-1404.94 -461.82c0,-902.73 1053.67,-875.36 1053.67,0 0,609.7 -610.52,921.55 -922.33,492.82 -80.99,-111.31 -131.34,-311.74 -131.34,-492.82zm-1639.1 -585.1c0,-321.05 -39.35,-430.09 184.1,-674.18 588.8,-643.18 1426.08,563.45 823.07,1251.77 -113.57,129.65 -219.27,215.28 -440.31,183.74 -173.02,-24.71 -351.76,-120.7 -425.96,-239.09 -82.1,-130.95 -140.9,-323.97 -140.9,-522.24zm-2224.49 -39.02c0,-354.21 -14.89,-664.26 209.85,-960.46 449.76,-592.83 1220.04,-167.77 1383.29,499.29 102.6,419.35 106.92,831.75 -105.67,1206.78 -559.99,987.86 -1487.47,105.73 -1487.47,-745.61zm3239.61 -1638.31l-158.1 272.29 -661.92 0.75 0 -120.77c-116.2,159.68 2.66,35.57 -155.9,116.35 55.63,-179.54 126.63,-208.2 228.8,-358.21l113.47 -192.58c415.31,-790.39 332.95,-548.67 655.52,-982.11 51.39,-69.02 96.88,-133.57 171.08,-214.38l640.45 -766.33c26.43,-41.32 57.14,-80.13 83.58,-110.88 37.15,-43.33 54.27,-58.94 94.66,-103.61l468.36 -544.21c316.62,-337.74 134.65,-345.04 509.68,-350.72 -46.86,357.92 -470.16,959.06 -681.3,1266.3 -189.5,275.77 -310.2,549.17 -454.56,789.05 -4.46,7.45 -11,16.69 -15.6,24.13 -37.73,61.39 -26.73,31.15 -73.98,127.32 -39.49,80.38 -59.09,131.7 -110.92,234.48l-346.65 707.81c-228.05,366.66 -303.83,618.51 -619.13,629.95l83.08 -94.91c109.62,-108.72 163.96,-86.6 229.38,-329.72zm-8078.84 4095.74c0,767.37 118.14,1688.09 345.76,2423.91l233.55 663.76c28.84,75.27 -0.18,-6.01 33.3,83.68 288.58,773.05 741.19,1547.04 1227.53,2205.72 93.87,127.17 148.75,205.9 250.38,334.83 190.25,241.35 602.83,873.35 914.5,880.29l223.44 -985.85c102.32,-362.7 121.49,-667.49 211.58,-997.75 25.9,-95.02 16.08,-76.03 34.85,-199.21 71.89,-471.92 588.01,-2037.9 726.12,-2472.82l426.32 -1212.17c3.66,-8.41 8.59,-18.34 12.44,-26.58 40.21,-86.49 54.2,-69.87 82.39,-190.71l78.05 0c0,1315.24 551.33,1055.11 312.52,1716.64 -114.65,317.52 -180.21,688.92 -273.14,1014.22 -42.62,149.18 -48.41,120.44 -84.09,306.02l-720.61 3493.27c-10.93,67.39 -15.79,105.98 -20.57,179.35 -9.89,151.55 -10.04,211.4 136.19,298 449.05,265.88 489.62,155.76 760.97,682.71 681.95,1324.45 2680.98,1434.89 3635,345.04 396.69,-453.15 703.53,-972.58 916.69,-1541.21 194.6,-519.18 170.22,-655.59 644.12,-994.48 635.16,-454.19 1184.51,-1002.11 1650.82,-1626.59 370.97,-496.84 726.52,-1022.85 981.11,-1593.82 254.62,-570.97 453.72,-1124.56 608.11,-1732.61l350.8 -2379.89 0 -1950.33c0,-981.79 -91.57,-1879.2 -79.59,-2849.08l104.22 -1846.19c57.47,-219.27 33.27,-205.13 58.27,-448.83 13.91,-135.47 71.24,-262.79 96.74,-410.38 62.86,-363.75 47.11,-404.67 166.8,-808.48l372.52 -1148.94c76.89,-259.63 189.67,-481.24 288.21,-687.1 65.75,-137.31 98.08,-212.3 168.57,-338.6 83.94,-150.44 146.62,-151.77 151.16,-356.01 -437.29,-101.82 -2118.94,197.08 -2592.34,295.44 -152.27,31.65 -203.09,67.83 -340.43,88.8 -843.72,128.75 -1820.72,487.03 -2598.12,796.75l-1462.23 644.87c-118.9,56.57 -171.88,75.2 -288.62,140.59l-827.85 459.8c-99.62,60.09 -185.11,94.91 -279.73,149.5l-2472 1780.98c-101.31,85.09 -134.5,98.11 -232.4,196.8l-661.95 625.56c-39.06,42.15 -51.9,57.9 -92.9,102.21 -63.8,68.94 -47.15,49.09 -109.62,124.5 -261.53,315.7 -548.52,591.72 -797.61,919.07 -32.91,43.23 -53.19,66.17 -87.43,107.64l-457.18 635.27c-107.46,172.95 -227.25,319.36 -325.58,493.71 -315.37,559.39 -621.24,1118.53 -846.88,1728.01 -209.17,565.03 -381.19,1105.18 -440.85,1704.74 -47.08,473.36 -111.31,527.99 -111.31,1175.95zm7258.82 -3943.47l1906.96 -2459.01c91.46,-124.15 152.28,-262.61 317.53,-306.74 -3.06,8.49 -10.54,12.05 -11.97,24.32 -1.37,11.83 -9.46,19.42 -11.3,23.66l-500.47 871.81c-34.1,59.98 -48.88,93.68 -82.69,151.37l-798.04 1542.32c-65.42,243.12 -119.76,221 -229.38,329.72l-83.08 94.91c315.3,-11.44 391.08,-263.29 619.13,-629.95l346.65 -707.81c51.83,-102.78 71.43,-154.1 110.92,-234.48 47.25,-96.17 36.25,-65.93 73.98,-127.32 4.6,-7.44 11.14,-16.68 15.6,-24.13 144.36,-239.88 265.06,-513.28 454.56,-789.05 211.14,-307.24 634.44,-908.38 681.3,-1266.3 -375.03,5.68 -193.06,12.98 -509.68,350.72l-468.36 544.21c-40.39,44.67 -57.51,60.28 -94.66,103.61 -26.44,30.75 -57.15,69.56 -83.58,110.88l-640.45 766.33c-74.2,80.81 -119.69,145.36 -171.08,214.38 -322.57,433.44 -240.21,191.72 -655.52,982.11l-113.47 192.58c-102.17,150.01 -173.17,178.67 -228.8,358.21 158.56,-80.78 39.7,43.33 155.9,-116.35zm3478.67 2695.26c29.35,174.97 281.09,519.29 -91.46,850.12 -210.82,187.2 -728.56,106.53 -737.01,-342.27 -1.62,-86.81 28.77,-270.63 53.01,-341.33 42.58,-124.04 109.15,-142.17 145.73,-289.8 -276.14,83.18 -383.67,660.59 -247.4,876.7l218.7 283.21c295.59,145.95 930.93,2.77 848.97,-760.71 -18.74,-174.35 -75.2,-239.05 -133.75,-376.51 -86.53,71.07 -26.11,-18.41 -56.79,100.59zm-6089.52 1681.11c151.73,-80.88 160.97,-7.73 336.98,34.99l55.68 -570.53c-289.8,-44.56 -387.66,416.39 -392.66,535.54z"/>
 </g>
</svg>
